<?xml version="1.0" standalone="no"?>
<!DOCTYPE svg PUBLIC "-//W3C//DTD SVG 20010904//EN"
 "http://www.w3.org/TR/2001/REC-SVG-20010904/DTD/svg10.dtd">
<svg version="1.0" xmlns="http://www.w3.org/2000/svg"
 width="700.000000pt" height="700.000000pt" viewBox="0 0 700.000000 700.000000"
 preserveAspectRatio="xMidYMid meet">
<metadata>
Created by potrace 1.14, written by Peter Selinger 2001-2017
</metadata>
<g transform="translate(0.000000,700.000000) scale(0.100000,-0.100000)"
fill="#000000" stroke="none">
<path d="M3278 6996 c-1 -2 -42 -6 -89 -10 -47 -4 -95 -8 -105 -10 -10 -2 -46
-7 -79 -12 -33 -4 -62 -8 -65 -9 -3 0 -27 -4 -55 -9 -27 -4 -106 -21 -175 -37
-69 -17 -135 -32 -147 -35 -13 -2 -78 -23 -145 -45 -679 -226 -1246 -625
-1682 -1183 -158 -201 -328 -483 -421 -696 -25 -58 -50 -114 -55 -125 -45 -93
-150 -427 -176 -560 -2 -11 -10 -54 -19 -95 -29 -147 -35 -192 -52 -370 -15
-162 -8 -591 12 -711 2 -13 6 -46 9 -74 47 -408 239 -953 466 -1318 30 -48 60
-95 65 -105 24 -42 133 -191 208 -285 163 -202 344 -382 557 -552 92 -74 370
-265 386 -265 4 0 15 -6 23 -14 31 -27 309 -163 448 -220 267 -108 553 -185
822 -222 25 -3 57 -8 71 -10 163 -25 682 -25 842 1 13 2 46 7 73 10 74 11 87
13 120 19 17 4 46 9 65 12 51 8 213 48 300 74 1116 326 1995 1183 2354 2295
30 95 68 233 82 300 16 77 54 301 60 350 4 33 9 76 11 95 8 73 10 519 2 602
-8 84 -18 172 -24 213 -1 11 -6 43 -10 70 -3 28 -8 58 -11 67 -5 18 -11 46
-20 93 -3 17 -18 82 -34 145 -161 644 -526 1250 -1031 1715 -491 452 -1152
771 -1799 870 -25 4 -54 9 -65 11 -10 2 -49 6 -85 10 -36 3 -78 8 -95 11 -33
5 -531 13 -537 9z m457 -381 c60 -4 112 -8 115 -10 3 -1 32 -6 65 -9 81 -9
168 -24 240 -41 33 -8 71 -16 85 -19 54 -9 251 -70 365 -113 180 -68 358 -156
540 -266 168 -103 358 -251 519 -405 63 -61 102 -102 211 -222 81 -90 305
-402 305 -425 0 -4 8 -19 19 -33 84 -120 234 -468 303 -702 25 -87 75 -313 82
-375 6 -46 9 -63 20 -137 24 -148 24 -551 2 -698 -2 -14 -7 -47 -10 -75 -29
-229 -89 -469 -180 -708 -29 -76 -39 -101 -106 -242 -165 -346 -427 -694 -720
-955 -40 -36 -80 -72 -89 -80 -18 -17 -134 -107 -167 -130 -247 -172 -467
-292 -709 -385 -161 -62 -393 -130 -515 -150 -19 -3 -60 -10 -90 -15 -284 -49
-650 -57 -920 -19 -108 15 -286 48 -350 65 -30 9 -63 17 -73 19 -106 23 -370
122 -526 197 -391 188 -720 441 -1031 793 -49 55 -196 255 -252 340 -99 153
-191 335 -288 570 -28 69 -94 273 -106 330 -2 11 -10 47 -19 80 -17 72 -44
221 -51 289 -2 27 -6 52 -8 55 -7 11 -19 243 -20 361 0 110 9 287 18 340 2 14
7 54 11 89 3 36 8 67 10 70 2 4 6 27 10 51 41 286 184 685 348 975 77 136 226
358 282 421 6 6 30 36 55 65 47 57 161 181 195 212 11 10 45 42 75 71 205 194
470 376 745 511 122 60 317 140 395 163 19 5 76 22 125 36 93 28 189 50 295
70 19 3 46 8 59 11 13 2 49 7 80 11 31 3 65 8 76 10 11 2 76 7 145 10 69 4
126 8 128 9 4 4 176 -2 307 -10z"/>
<path d="M1609 4735 c-3 -62 -1 -144 4 -151 3 -5 93 -9 201 -8 l196 1 0 -1081
c0 -595 -4 -1087 -9 -1094 -13 -22 -77 -32 -235 -37 -82 -3 -151 -7 -154 -10
-4 -4 -5 -71 -3 -145 l1 -25 102 5 c147 8 873 4 887 -4 12 -8 12 -7 14 102 l2
72 -55 1 c-81 0 -242 9 -265 13 -11 3 -28 5 -37 5 -9 1 -24 8 -32 17 -14 14
-16 124 -15 1072 l1 1057 26 -55 c15 -31 39 -82 54 -115 14 -33 61 -136 103
-230 106 -234 109 -239 110 -245 1 -3 16 -36 34 -75 18 -38 50 -108 71 -155
21 -47 52 -116 70 -155 18 -38 73 -160 122 -270 79 -174 233 -514 318 -700 15
-33 49 -109 76 -169 27 -60 61 -122 76 -137 43 -42 113 -43 157 -2 17 16 80
140 143 283 9 19 28 62 43 95 15 33 56 123 90 200 35 77 79 174 98 215 19 41
45 98 57 125 31 70 214 474 283 625 14 30 45 100 70 155 57 128 92 204 129
285 16 36 57 126 90 200 34 74 66 142 72 151 8 13 11 -265 11 -1085 l0 -1101
-170 -2 c-93 -1 -184 -2 -202 -2 l-32 -1 0 -82 c0 -46 4 -85 9 -88 4 -3 44 -3
87 0 43 3 326 5 629 4 l552 -1 0 83 c0 79 -2 84 -22 85 -11 0 -102 0 -201 0
l-181 0 1 1107 0 1107 180 1 c99 1 190 2 201 3 21 1 22 6 22 86 l0 85 -444 0
c-478 0 -494 -2 -525 -51 -8 -13 -95 -202 -194 -419 -98 -217 -193 -426 -210
-465 -37 -81 -67 -145 -105 -230 -15 -33 -36 -80 -48 -105 -11 -25 -55 -121
-97 -215 -42 -93 -88 -194 -101 -222 -28 -62 -64 -141 -98 -215 -57 -126 -70
-151 -74 -137 -6 16 -18 45 -122 274 -40 88 -84 185 -97 215 -69 151 -401 884
-436 960 -14 30 -45 100 -70 155 -25 55 -58 129 -74 165 -16 36 -43 96 -59
134 -16 38 -47 88 -70 112 l-41 44 -456 0 c-399 0 -457 -2 -458 -15z"/>
</g>
</svg>
